PathFileType	4	(X/Y/Z)	C:\Users\86182\Documents\cortex\Trimmed_M3_H16.trc
DataRate	CameraRate	NumFrames	NumMarkers	Units	OrigDataRate	OrigDataStartFrame	OrigNumFrames
100.00	100.00	       126	2	mm	100.00	541	       901
Frame#	Time	gripper			box			
		X1	Y1	Z1	X2	Y2	Z2	

541	5.400	267.71030	173.10400	292.07806	268.41385	171.24228	155.95387	
542	5.410	267.71161	173.10329	292.07788	268.42133	171.24356	155.95242	
543	5.420	267.71344	173.10225	292.07764	268.42801	171.24237	155.95239	
544	5.430	267.71548	173.10114	292.07755	268.43253	171.23918	155.95372	
545	5.440	267.71756	173.10013	292.07779	268.43417	171.23508	155.95589	
546	5.450	267.71964	173.09926	292.07843	268.43323	171.23109	155.95839	
547	5.460	267.72162	173.09850	292.07947	268.43063	171.22777	155.96089	
548	5.470	267.72330	173.09784	292.08069	268.42764	171.22508	155.96327	
549	5.480	267.72446	173.09732	292.08191	268.42535	171.22299	155.96539	
550	5.490	267.72495	173.09705	292.08295	268.42419	171.22186	155.96687	
551	5.500	267.72467	173.09709	292.08374	268.42432	171.22241	155.96709	
552	5.510	267.72351	173.09755	292.08411	268.42590	171.22517	155.96562	
553	5.520	267.72147	173.09850	292.08395	268.42892	171.23010	155.96265	
554	5.530	267.71872	173.09987	292.08325	268.43280	171.23651	155.95872	
555	5.540	267.71579	173.10144	292.08221	268.43631	171.24323	155.95468	
556	5.550	267.71332	173.10281	292.08112	268.43808	171.24902	155.95116	
557	5.560	267.71176	173.10368	292.08008	268.43741	171.25317	155.94855	
558	5.570	267.71115	173.10402	292.07922	268.43445	171.25548	155.94699	
559	5.580	267.71127	173.10402	292.07870	268.43030	171.25598	155.94649	
560	5.590	267.71182	173.10385	292.07855	268.42642	171.25461	155.94704	
561	5.600	267.71274	173.10355	292.07874	268.42392	171.25139	155.94855	
562	5.610	267.71399	173.10303	292.07904	268.42307	171.24658	155.95085	
563	5.620	267.71561	173.10222	292.07935	268.42334	171.24063	155.95375	
564	5.630	267.71750	173.10124	292.07971	268.42422	171.23428	155.95686	
565	5.640	267.71954	173.10025	292.08032	268.42615	171.22850	155.95967	
566	5.650	267.72147	173.09941	292.08112	268.42990	171.22443	155.96150	
567	5.660	267.72308	173.09882	292.08197	268.43588	171.22293	155.96191	
568	5.670	267.72397	173.09854	292.08246	268.44333	171.22423	155.96082	
569	5.680	267.72403	173.09857	292.08246	268.45059	171.22783	155.95862	
570	5.690	267.72327	173.09883	292.08185	268.45590	171.23289	155.95589	
571	5.700	267.72198	173.09923	292.08087	268.45798	171.23866	155.95308	
572	5.710	267.72043	173.09969	292.07983	268.45670	171.24460	155.95041	
573	5.720	267.71887	173.10017	292.07895	268.45270	171.25027	155.94804	
574	5.730	267.71756	173.10069	292.07843	268.44717	171.25519	155.94621	
575	5.740	267.71664	173.10118	292.07834	268.44113	171.25876	155.94525	
576	5.750	267.71622	173.10155	292.07855	268.43515	171.26036	155.94548	
577	5.760	267.71622	173.10175	292.07892	268.42947	171.25986	155.94691	
578	5.770	267.71649	173.10178	292.07919	268.42432	171.25766	155.94910	
579	5.780	267.71680	173.10165	292.07928	268.42004	171.25458	155.95131	
580	5.790	267.71695	173.10146	292.07910	268.41702	171.25157	155.95288	
581	5.800	267.71689	173.10124	292.07867	268.41556	171.24959	155.95348	
582	5.810	267.71667	173.10106	292.07816	268.41589	171.24907	155.95314	
583	5.820	267.71652	173.10088	292.07767	268.41803	171.24980	155.95218	
584	5.830	267.71655	173.10068	292.07733	268.42178	171.25140	155.95085	
585	5.840	267.71686	173.10042	292.07709	268.42691	171.25336	155.94934	
586	5.850	267.71735	173.10016	292.07697	268.43323	171.25507	155.94781	
587	5.860	267.71799	173.09991	292.07706	268.44028	171.25594	155.94647	
588	5.870	267.71875	173.09976	292.07742	268.44739	171.25581	155.94550	
589	5.880	267.71960	173.09972	292.07803	268.45319	171.25504	155.94493	
590	5.890	267.72031	173.09978	292.07877	268.45599	171.25414	155.94476	
591	5.900	267.72055	173.09998	292.07935	268.45456	171.25349	155.94493	
592	5.910	267.72003	173.10033	292.07962	268.44852	171.25320	155.94540	
593	5.920	267.71875	173.10091	292.07959	268.43851	171.25313	155.94621	
594	5.930	267.71674	173.10176	292.07953	268.42630	171.25285	155.94737	
595	5.940	267.71426	173.10295	292.07959	268.41449	171.25208	155.94881	
596	5.950	267.71155	173.10442	292.07996	268.40533	171.25098	155.95024	
597	5.960	267.70895	173.10597	292.08044	268.40018	171.25008	155.95123	
598	5.970	267.70685	173.10728	292.08093	268.39926	171.24994	155.95151	
599	5.980	267.70554	173.10808	292.08109	268.40225	171.25058	155.95100	
600	5.990	267.70490	173.10831	292.08087	268.40851	171.25157	155.95001	
601	6.000	267.70480	173.10809	292.08038	268.41714	171.25237	155.94882	
602	6.010	267.70535	173.10745	292.07977	268.42685	171.25267	155.94768	
603	6.020	267.70685	173.10629	292.07904	268.43591	171.25237	155.94687	
604	6.030	267.70923	173.10471	292.07834	268.44290	171.25146	155.94664	
605	6.040	267.71210	173.10297	292.07788	268.44727	171.24998	155.94714	
606	6.050	267.71503	173.10136	292.07779	268.44897	171.24811	155.94843	
607	6.060	267.71774	173.10008	292.07813	268.44839	171.24611	155.95042	
608	6.070	267.71997	173.09917	292.07880	268.44614	171.24431	155.95300	
609	6.080	267.72153	173.09866	292.07947	268.44281	171.24292	155.95601	
610	6.090	267.72226	173.09851	292.07999	268.43912	171.24214	155.95924	
611	6.100	267.72232	173.09866	292.08032	268.43546	171.24220	155.96243	
612	6.110	267.72192	173.09906	292.08057	268.43188	171.24335	155.96503	
613	6.120	267.72122	173.09959	292.08072	268.42831	171.24561	155.96620	
614	6.130	267.72028	173.10020	292.08060	268.42484	171.24893	155.96519	
615	6.140	267.71906	173.10077	292.08008	268.42197	171.25299	155.96205	
616	6.150	267.71759	173.10117	292.07919	268.42056	171.25705	155.95776	
617	6.160	267.71622	173.10138	292.07825	268.42099	171.26021	155.95358	
618	6.170	267.71524	173.10135	292.07755	268.42264	171.26173	155.95041	
619	6.180	267.71497	173.10100	292.07739	268.42447	171.26128	155.94867	
620	6.190	267.71558	173.10023	292.07785	268.42590	171.25891	155.94830	
621	6.200	267.71713	173.09909	292.07904	268.42706	171.25493	155.94907	
622	6.210	267.71945	173.09766	292.08093	268.42868	171.24968	155.95073	
623	6.220	267.72223	173.09616	292.08331	268.43124	171.24361	155.95316	
624	6.230	267.72488	173.09494	292.08566	268.43475	171.23735	155.95605	
625	6.240	267.72684	173.09433	292.08740	268.43903	171.23166	155.95905	
626	6.250	267.72766	173.09450	292.08817	268.44366	171.22708	155.96175	
627	6.260	267.72736	173.09528	292.08792	268.44785	171.22406	155.96379	
628	6.270	267.72620	173.09639	292.08691	268.45029	171.22282	155.96483	
629	6.280	267.72452	173.09753	292.08536	268.45029	171.22330	155.96474	
630	6.290	267.72275	173.09853	292.08362	268.44827	171.22527	155.96358	
631	6.300	267.72122	173.09937	292.08215	268.44534	171.22852	155.96156	
632	6.310	267.72009	173.10007	292.08121	268.44272	171.23251	155.95912	
633	6.320	267.71951	173.10068	292.08093	268.44092	171.23636	155.95695	
634	6.330	267.71936	173.10127	292.08127	268.43961	171.23927	155.95560	
635	6.340	267.71948	173.10181	292.08191	268.43820	171.24120	155.95512	
636	6.350	267.71976	173.10216	292.08252	268.43637	171.24240	155.95528	
637	6.360	267.72006	173.10222	292.08289	268.43393	171.24289	155.95581	
638	6.370	267.72037	173.10197	292.08298	268.43076	171.24246	155.95660	
639	6.380	267.72064	173.10153	292.08276	268.42712	171.24110	155.95760	
640	6.390	267.72083	173.10095	292.08237	268.42374	171.23920	155.95868	
641	6.400	267.72104	173.10033	292.08194	268.42145	171.23715	155.95970	
642	6.410	267.72125	173.09973	292.08173	268.42090	171.23534	155.96048	
643	6.420	267.72153	173.09921	292.08167	268.42230	171.23401	155.96075	
644	6.430	267.72171	173.09889	292.08179	268.42557	171.23329	155.96036	
645	6.440	267.72156	173.09889	292.08185	268.43039	171.23318	155.95935	
646	6.450	267.72086	173.09930	292.08179	268.43628	171.23366	155.95795	
647	6.460	267.71957	173.10016	292.08157	268.44211	171.23477	155.95633	
648	6.470	267.71780	173.10130	292.08130	268.44653	171.23637	155.95476	
649	6.480	267.71585	173.10258	292.08105	268.44858	171.23822	155.95345	
650	6.490	267.71399	173.10374	292.08084	268.44800	171.24004	155.95251	
651	6.500	267.71255	173.10449	292.08051	268.44540	171.24165	155.95193	
652	6.510	267.71170	173.10471	292.07990	268.44168	171.24289	155.95163	
653	6.520	267.71127	173.10454	292.07922	268.43756	171.24355	155.95163	
654	6.530	267.71103	173.10428	292.07870	268.43362	171.24335	155.95200	
655	6.540	267.71091	173.10405	292.07846	268.43051	171.24228	155.95279	
656	6.550	267.71106	173.10378	292.07846	268.42880	171.24059	155.95386	
657	6.560	267.71161	173.10335	292.07861	268.42880	171.23883	155.95494	
658	6.570	267.71265	173.10274	292.07886	268.43042	171.23749	155.95583	
659	6.580	267.71408	173.10197	292.07910	268.43350	171.23688	155.95631	
660	6.590	267.71576	173.10114	292.07919	268.43777	171.23709	155.95634	
661	6.600	267.71735	173.10037	292.07910	268.44275	171.23784	155.95595	
662	6.610	267.71857	173.09981	292.07880	268.44772	171.23875	155.95532	
663	6.620	267.71927	173.09941	292.07843	268.45175	171.23955	155.95465	
664	6.630	267.71957	173.09915	292.07809	268.45410	171.23994	155.95424	
665	6.640	267.71976	173.09898	292.07806	268.45474	171.23973	155.95435	
666	6.650	267.72025	173.09885	292.07861	268.45380	171.23882	155.95514	
